<svg width="24" height="24" viewBox="0 0 24 24" fill="none" xmlns="http://www.w3.org/2000/svg">
<g opacity="0.5">
<path d="M8.625 6.375H5.25C4.75272 6.375 4.27581 6.57254 3.92417 6.92417C3.57254 7.27581 3.375 7.75272 3.375 8.25V12.75C3.375 13.2473 3.57254 13.7242 3.92417 14.0758C4.27581 14.4275 4.75272 14.625 5.25 14.625H8.625C8.72446 14.625 8.81984 14.5855 8.89017 14.5152C8.96049 14.4448 9 14.3495 9 14.25V6.75C9 6.65054 8.96049 6.55516 8.89017 6.48483C8.81984 6.41451 8.72446 6.375 8.625 6.375ZM5.25 13.875C4.95163 13.875 4.66548 13.7565 4.4545 13.5455C4.24353 13.3345 4.125 13.0484 4.125 12.75V8.25C4.125 7.95163 4.24353 7.66548 4.4545 7.4545C4.66548 7.24353 4.95163 7.125 5.25 7.125H8.25V13.875H5.25Z" fill="black"/>
<path opacity="0.5" d="M5.25 7.125C4.95163 7.125 4.66548 7.24353 4.4545 7.4545C4.24353 7.66548 4.125 7.95163 4.125 8.25V12.75C4.125 13.0484 4.24353 13.3345 4.4545 13.5455C4.66548 13.7565 4.95163 13.875 5.25 13.875H8.25V7.125H5.25ZM7.125 10.875H5.625C5.52554 10.875 5.43016 10.8355 5.35984 10.7652C5.28951 10.6948 5.25 10.5995 5.25 10.5C5.25 10.4005 5.28951 10.3052 5.35984 10.2348C5.43016 10.1645 5.52554 10.125 5.625 10.125H7.125C7.22446 10.125 7.31984 10.1645 7.39017 10.2348C7.46049 10.3052 7.5 10.4005 7.5 10.5C7.5 10.5995 7.46049 10.6948 7.39017 10.7652C7.31984 10.8355 7.22446 10.875 7.125 10.875ZM7.125 9H5.625C5.52554 9 5.43016 8.96049 5.35984 8.89017C5.28951 8.81984 5.25 8.72446 5.25 8.625C5.25 8.52554 5.28951 8.43016 5.35984 8.35983C5.43016 8.28951 5.52554 8.25 5.625 8.25H7.125C7.22446 8.25 7.31984 8.28951 7.39017 8.35983C7.46049 8.43016 7.5 8.52554 7.5 8.625C7.5 8.72446 7.46049 8.81984 7.39017 8.89017C7.31984 8.96049 7.22446 9 7.125 9Z" fill="black"/>
<path d="M17.7787 3.03753C17.7132 3.00799 17.6405 2.99794 17.5693 3.00858C17.4982 3.01922 17.4316 3.05009 17.3775 3.09753L17.25 3.20253C16.2652 4.0439 15.1606 4.73397 13.9725 5.25003C12.2882 5.99456 10.4665 6.3778 8.625 6.37503C8.52554 6.37503 8.43016 6.41454 8.35983 6.48486C8.28951 6.55519 8.25 6.65057 8.25 6.75003V14.25C8.24816 14.275 8.24816 14.3001 8.25 14.325V14.3438C8.27126 14.4263 8.31998 14.4991 8.38814 14.5502C8.4563 14.6013 8.53984 14.6277 8.625 14.625H9.07875C9.255 14.625 9.4275 14.625 9.6 14.655L10.0725 14.7H10.125L10.4475 14.7413C10.59 14.7588 10.7325 14.7813 10.875 14.8088C13.2294 15.2091 15.4319 16.2378 17.25 17.7863L17.3775 17.895C17.4316 17.9425 17.4982 17.9733 17.5693 17.984C17.6405 17.9946 17.7132 17.9846 17.7787 17.955C17.8428 17.9263 17.8976 17.8801 17.9367 17.8217C17.9758 17.7634 17.9977 17.6952 18 17.625V3.37503C17.9991 3.30353 17.9778 3.23378 17.9386 3.17398C17.8994 3.11418 17.844 3.06684 17.7787 3.03753ZM17.25 16.83C15.305 15.3162 12.9945 14.3434 10.5525 14.01C10.4175 14.01 10.2825 13.9725 10.1475 13.9613L9.8775 13.935L9.5625 13.9088H9.28875H9.09H9V7.12503C10.8174 7.07946 12.6084 6.67947 14.2725 5.94753C15.3338 5.48019 16.3337 4.8845 17.25 4.17378V16.83ZM21.7687 8.46378L20.2687 7.89378L20.025 7.80378C19.9682 7.78255 19.9071 7.77542 19.8469 7.783C19.7867 7.79058 19.7292 7.81265 19.6795 7.84731C19.6297 7.88197 19.5891 7.92819 19.5611 7.98201C19.5331 8.03582 19.5186 8.09562 19.5187 8.15628V12.8438C19.5187 12.9432 19.5583 13.0386 19.6286 13.1089C19.6989 13.1793 19.7943 13.2188 19.8937 13.2188C19.9385 13.2192 19.9829 13.2115 20.025 13.1963L20.25 13.125L21.7725 12.5513C21.9895 12.4693 22.176 12.3223 22.3062 12.1303C22.4364 11.9383 22.5041 11.7107 22.5 11.4788V9.52128C22.5007 9.29141 22.4311 9.06684 22.3003 8.87777C22.1696 8.68871 21.9841 8.54423 21.7687 8.46378ZM21.7687 11.4638C21.769 11.5404 21.7458 11.6153 21.7022 11.6783C21.6586 11.7413 21.5968 11.7895 21.525 11.8163L20.25 12.3038V8.69628L21.5025 9.16503C21.5756 9.19145 21.6387 9.23992 21.683 9.30373C21.7273 9.36755 21.7507 9.44357 21.75 9.52128L21.7687 11.4638ZM3.75 8.25003H2.625C2.32663 8.25003 2.04048 8.36855 1.8295 8.57953C1.61853 8.79051 1.5 9.07666 1.5 9.37503V11.625C1.5 11.9234 1.61853 12.2095 1.8295 12.4205C2.04048 12.6315 2.32663 12.75 2.625 12.75H3.75C3.84946 12.75 3.94484 12.7105 4.01516 12.6402C4.08549 12.5699 4.125 12.4745 4.125 12.375V8.62503C4.125 8.52557 4.08549 8.43019 4.01516 8.35986C3.94484 8.28954 3.84946 8.25003 3.75 8.25003ZM3.375 12H2.625C2.52554 12 2.43016 11.9605 2.35984 11.8902C2.28951 11.8199 2.25 11.7245 2.25 11.625V9.37503C2.25 9.27557 2.28951 9.18019 2.35984 9.10986C2.43016 9.03954 2.52554 9.00003 2.625 9.00003H3.375V12Z" fill="#224971"/>
<path d="M10.065 19.9013L9.48751 16.8188L9.07876 14.625L9.00001 14.22V14.1788C8.98325 14.0921 8.93645 14.0141 8.86786 13.9585C8.79926 13.903 8.71327 13.8734 8.62501 13.875H5.62501C5.56915 13.874 5.51377 13.8855 5.46291 13.9086C5.41206 13.9317 5.36701 13.9659 5.33107 14.0087C5.29513 14.0515 5.2692 14.1017 5.25517 14.1558C5.24115 14.2099 5.23938 14.2664 5.25001 14.3213L5.30626 14.625L6.75001 22.1962C6.76676 22.2829 6.81356 22.3609 6.88215 22.4165C6.95075 22.472 7.03675 22.5016 7.12501 22.5H11.25C11.3495 22.5 11.4448 22.4605 11.5152 22.3902C11.5855 22.3198 11.625 22.2245 11.625 22.125V21.75C11.6251 21.3073 11.4685 20.8788 11.183 20.5404C10.8975 20.202 10.5014 19.9756 10.065 19.9013ZM7.44001 21.75L6.07876 14.625H8.32876L8.70376 16.5713L9.40501 20.3212C9.42066 20.403 9.46305 20.4772 9.52551 20.5322C9.58797 20.5872 9.66695 20.6198 9.75001 20.625C10.0484 20.625 10.3345 20.7435 10.5455 20.9545C10.7565 21.1655 10.875 21.4516 10.875 21.75H7.44001Z" fill="#224971"/>
<path opacity="0.5" d="M10.875 21.75H7.43624L6.07874 14.625H8.32874L8.70374 16.5712L9.40499 20.3212C9.42064 20.403 9.46303 20.4772 9.52549 20.5322C9.58795 20.5872 9.66693 20.6198 9.74999 20.625C10.0484 20.625 10.3345 20.7435 10.5455 20.9545C10.7565 21.1655 10.875 21.4516 10.875 21.75Z" fill="#224971"/>
<path d="M10.5525 14.01C10.4175 14.01 10.2825 13.9725 10.1475 13.9613L9.87754 13.935L9.56254 13.9088H9.28879H9.09004H9.00004C8.87629 13.9088 8.74879 13.9088 8.62504 13.9088C8.56995 13.9087 8.51551 13.9207 8.46561 13.944C8.4157 13.9674 8.37155 14.0014 8.33629 14.0438C8.28724 14.1021 8.25715 14.1741 8.25004 14.25C8.2482 14.275 8.2482 14.3 8.25004 14.325V14.3438L8.30254 14.6288L8.67754 16.575C8.6943 16.6617 8.74109 16.7397 8.80969 16.7952C8.87828 16.8508 8.96428 16.8804 9.05254 16.8788C9.20063 16.8795 9.34816 16.8606 9.49129 16.8225C9.88747 16.7249 10.2393 16.4969 10.4903 16.1752C10.7413 15.8535 10.8768 15.4568 10.875 15.0488V14.3813C10.875 14.2909 10.8424 14.2036 10.7831 14.1354C10.7239 14.0672 10.642 14.0227 10.5525 14.01ZM10.125 15.0488C10.1248 15.281 10.0494 15.5069 9.91016 15.6928C9.77094 15.8786 9.57532 16.0145 9.35254 16.08L9.07879 14.625C9.25504 14.625 9.42754 14.625 9.60004 14.655C9.77254 14.685 9.91879 14.6813 10.0725 14.7H10.125V15.0488Z" fill="black"/>
<path opacity="0.5" d="M10.125 14.7112V15.0488C10.1247 15.281 10.0493 15.5069 9.91011 15.6928C9.77088 15.8786 9.57527 16.0145 9.35249 16.08L9.07874 14.625C9.25499 14.625 9.42749 14.625 9.59999 14.655L10.0725 14.7L10.125 14.7112Z" fill="black"/>
<path d="M19.8113 1.56377C19.6015 1.35375 19.3341 1.2107 19.043 1.15273C18.7518 1.09475 18.45 1.12446 18.1758 1.23809C17.9016 1.35172 17.6672 1.54416 17.5024 1.79105C17.3376 2.03794 17.2498 2.32818 17.25 2.62502V18.375C17.25 18.7728 17.408 19.1544 17.6893 19.4357C17.9706 19.717 18.3522 19.875 18.75 19.875C19.1478 19.875 19.5294 19.717 19.8107 19.4357C20.092 19.1544 20.25 18.7728 20.25 18.375V2.62502C20.2502 2.42798 20.2115 2.23284 20.1362 2.05075C20.0609 1.86865 19.9505 1.70318 19.8113 1.56377ZM19.5 18.375C19.5 18.5739 19.421 18.7647 19.2803 18.9054C19.1397 19.046 18.9489 19.125 18.75 19.125C18.5511 19.125 18.3603 19.046 18.2197 18.9054C18.079 18.7647 18 18.5739 18 18.375V2.62502C18 2.42611 18.079 2.23534 18.2197 2.09469C18.3603 1.95404 18.5511 1.87502 18.75 1.87502C18.9489 1.87502 19.1397 1.95404 19.2803 2.09469C19.421 2.23534 19.5 2.42611 19.5 2.62502V18.375Z" fill="black"/>
<path opacity="0.5" d="M19.5 2.625V18.375C19.5 18.5739 19.421 18.7647 19.2803 18.9053C19.1397 19.046 18.9489 19.125 18.75 19.125C18.5511 19.125 18.3603 19.046 18.2197 18.9053C18.079 18.7647 18 18.5739 18 18.375V2.625C18 2.42609 18.079 2.23532 18.2197 2.09467C18.3603 1.95402 18.5511 1.875 18.75 1.875C18.9489 1.875 19.1397 1.95402 19.2803 2.09467C19.421 2.23532 19.5 2.42609 19.5 2.625Z" fill="black"/>
</g>
</svg>
