<svg width="24" height="24" viewBox="0 0 24 24" fill="none" xmlns="http://www.w3.org/2000/svg">
<path d="M17 8H20L23 12.056V18H20.965C20.8446 18.8331 20.4281 19.5949 19.7917 20.1459C19.1553 20.6969 18.3418 21.0002 17.5 21.0002C16.6582 21.0002 15.8447 20.6969 15.2083 20.1459C14.5719 19.5949 14.1554 18.8331 14.035 18H8.965C8.84612 18.8343 8.43021 19.5977 7.79368 20.1499C7.15714 20.7022 6.34272 21.0063 5.5 21.0063C4.65728 21.0063 3.84286 20.7022 3.20632 20.1499C2.56979 19.5977 2.15388 18.8343 2.035 18H1V6C1 5.73478 1.10536 5.48043 1.29289 5.29289C1.48043 5.10536 1.73478 5 2 5H16C16.2652 5 16.5196 5.10536 16.7071 5.29289C16.8946 5.48043 17 5.73478 17 6V8ZM17 10V13H21V12.715L18.992 10H17Z" fill="#8797A8"/>
</svg>
