<svg width="22" height="16" viewBox="0 0 22 16" fill="none" xmlns="http://www.w3.org/2000/svg">
<path d="M16 3H19L22 7.056V13H19.965C19.8446 13.8331 19.4281 14.5949 18.7917 15.1459C18.1553 15.6969 17.3418 16.0002 16.5 16.0002C15.6582 16.0002 14.8447 15.6969 14.2083 15.1459C13.5719 14.5949 13.1554 13.8331 13.035 13H7.965C7.84612 13.8343 7.43021 14.5977 6.79368 15.1499C6.15714 15.7022 5.34272 16.0063 4.5 16.0063C3.65728 16.0063 2.84286 15.7022 2.20632 15.1499C1.56979 14.5977 1.15388 13.8343 1.035 13H0V1C0 0.734784 0.105357 0.48043 0.292893 0.292893C0.48043 0.105357 0.734784 0 1 0H15C15.2652 0 15.5196 0.105357 15.7071 0.292893C15.8946 0.48043 16 0.734784 16 1V3ZM16 5V8H20V7.715L17.992 5H16Z" fill="#8797A8"/>
</svg>
