<svg width="29" height="29" viewBox="0 0 29 29" fill="none" xmlns="http://www.w3.org/2000/svg">
<path d="M11.7928 5.89639C11.7928 4.5938 12.8487 3.53783 14.1513 3.53783C15.4539 3.53783 16.5099 4.5938 16.5099 5.89639C19.2696 7.20133 21.0839 9.92274 21.227 12.9721V16.5099C21.407 17.9967 22.2823 19.3097 23.5856 20.0477H4.7171C6.02034 19.3097 6.89568 17.9967 7.07566 16.5099V12.9721C7.21879 9.92274 9.03306 7.20133 11.7928 5.89639" stroke="#4B465C" stroke-width="3" stroke-linecap="round" stroke-linejoin="round"/>
<path d="M11.7928 5.89639C11.7928 4.5938 12.8487 3.53783 14.1513 3.53783C15.4539 3.53783 16.5099 4.5938 16.5099 5.89639C19.2696 7.20133 21.0839 9.92274 21.227 12.9721V16.5099C21.407 17.9967 22.2823 19.3097 23.5856 20.0477H4.7171C6.02034 19.3097 6.89568 17.9967 7.07566 16.5099V12.9721C7.21879 9.92274 9.03306 7.20133 11.7928 5.89639" stroke="#224971" stroke-width="3" stroke-linecap="round" stroke-linejoin="round"/>
<path d="M10.6135 20.0477V21.227C10.6135 23.1809 12.1974 24.7649 14.1513 24.7649C16.1052 24.7649 17.6892 23.1809 17.6892 21.227V20.0477" stroke="#4B465C" stroke-width="3" stroke-linecap="round" stroke-linejoin="round"/>
<path d="M10.6135 20.0477V21.227C10.6135 23.1809 12.1974 24.7649 14.1513 24.7649C16.1052 24.7649 17.6892 23.1809 17.6892 21.227V20.0477" stroke="#224971" stroke-width="3" stroke-linecap="round" stroke-linejoin="round"/>
</svg>
