<svg width="33" height="41" viewBox="0 0 33 41" fill="none" xmlns="http://www.w3.org/2000/svg">
<path d="M11.7928 11.8835C11.7928 10.5809 12.8487 9.52494 14.1513 9.52494C15.4539 9.52494 16.5099 10.5809 16.5099 11.8835C19.2696 13.1884 21.0839 15.9098 21.227 18.9592V22.497C21.407 23.9838 22.2823 25.2969 23.5856 26.0348H4.7171C6.02034 25.2969 6.89568 23.9838 7.07566 22.497V18.9592C7.21879 15.9098 9.03306 13.1884 11.7928 11.8835" stroke="#4B465C" stroke-width="3" stroke-linecap="round" stroke-linejoin="round"/>
<path d="M11.7928 11.8835C11.7928 10.5809 12.8487 9.52494 14.1513 9.52494C15.4539 9.52494 16.5099 10.5809 16.5099 11.8835C19.2696 13.1884 21.0839 15.9098 21.227 18.9592V22.497C21.407 23.9838 22.2823 25.2969 23.5856 26.0348H4.7171C6.02034 25.2969 6.89568 23.9838 7.07566 22.497V18.9592C7.21879 15.9098 9.03306 13.1884 11.7928 11.8835" stroke="#224971" stroke-width="3" stroke-linecap="round" stroke-linejoin="round"/>
<path d="M10.6135 26.0348V27.2141C10.6135 29.168 12.1974 30.752 14.1513 30.752C16.1052 30.752 17.6892 29.168 17.6892 27.2141V26.0348" stroke="#4B465C" stroke-width="3" stroke-linecap="round" stroke-linejoin="round"/>
<path d="M10.6135 26.0348V27.2141C10.6135 29.168 12.1974 30.752 14.1513 30.752C16.1052 30.752 17.6892 29.168 17.6892 27.2141V26.0348" stroke="#224971" stroke-width="3" stroke-linecap="round" stroke-linejoin="round"/>
<circle cx="23.2299" cy="10.7617" r="9" fill="#EA5455"/>
<path d="M23.2244 6.101H24.7974V11.925H26.2989V13.2705H24.7974V15.5H23.2634L23.2699 13.2705H18.8954V11.925L23.2244 6.101ZM20.3774 11.925H23.2569V8.064L20.3774 11.925Z" fill="white"/>
</svg>
