<svg width="20" height="24" viewBox="0 0 20 24" fill="none" xmlns="http://www.w3.org/2000/svg">
<path d="M7.50001 5C7.279 5 7.06703 5.10536 6.91075 5.29289C6.75447 5.48043 6.66668 5.73478 6.66668 6C6.66668 6.26522 6.75447 6.51957 6.91075 6.70711C7.06703 6.89464 7.279 7 7.50001 7C7.72102 7 7.93299 6.89464 8.08927 6.70711C8.24555 6.51957 8.33334 6.26522 8.33334 6C8.33334 5.73478 8.24555 5.48043 8.08927 5.29289C7.93299 5.10536 7.72102 5 7.50001 5ZM5.14168 5C5.31385 4.41447 5.63313 3.90744 6.05551 3.54879C6.47789 3.19015 6.98258 2.99755 7.50001 2.99755C8.01744 2.99755 8.52213 3.19015 8.94451 3.54879C9.36689 3.90744 9.68617 4.41447 9.85834 5H15.8333C16.0544 5 16.2663 5.10536 16.4226 5.29289C16.5789 5.48043 16.6667 5.73478 16.6667 6C16.6667 6.26522 16.5789 6.51957 16.4226 6.70711C16.2663 6.89464 16.0544 7 15.8333 7H9.85834C9.68617 7.58553 9.36689 8.09257 8.94451 8.45121C8.52213 8.80986 8.01744 9.00245 7.50001 9.00245C6.98258 9.00245 6.47789 8.80986 6.05551 8.45121C5.63313 8.09257 5.31385 7.58553 5.14168 7H4.16668C3.94566 7 3.7337 6.89464 3.57742 6.70711C3.42114 6.51957 3.33334 6.26522 3.33334 6C3.33334 5.73478 3.42114 5.48043 3.57742 5.29289C3.7337 5.10536 3.94566 5 4.16668 5H5.14168ZM12.5 11C12.279 11 12.067 11.1054 11.9108 11.2929C11.7545 11.4804 11.6667 11.7348 11.6667 12C11.6667 12.2652 11.7545 12.5196 11.9108 12.7071C12.067 12.8946 12.279 13 12.5 13C12.721 13 12.933 12.8946 13.0893 12.7071C13.2455 12.5196 13.3333 12.2652 13.3333 12C13.3333 11.7348 13.2455 11.4804 13.0893 11.2929C12.933 11.1054 12.721 11 12.5 11ZM10.1417 11C10.3138 10.4145 10.6331 9.90743 11.0555 9.54879C11.4779 9.19015 11.9826 8.99755 12.5 8.99755C13.0174 8.99755 13.5221 9.19015 13.9445 9.54879C14.3669 9.90743 14.6862 10.4145 14.8583 11H15.8333C16.0544 11 16.2663 11.1054 16.4226 11.2929C16.5789 11.4804 16.6667 11.7348 16.6667 12C16.6667 12.2652 16.5789 12.5196 16.4226 12.7071C16.2663 12.8946 16.0544 13 15.8333 13H14.8583C14.6862 13.5855 14.3669 14.0926 13.9445 14.4512C13.5221 14.8099 13.0174 15.0025 12.5 15.0025C11.9826 15.0025 11.4779 14.8099 11.0555 14.4512C10.6331 14.0926 10.3138 13.5855 10.1417 13H4.16668C3.94566 13 3.7337 12.8946 3.57742 12.7071C3.42114 12.5196 3.33334 12.2652 3.33334 12C3.33334 11.7348 3.42114 11.4804 3.57742 11.2929C3.7337 11.1054 3.94566 11 4.16668 11H10.1417ZM7.50001 17C7.279 17 7.06703 17.1054 6.91075 17.2929C6.75447 17.4804 6.66668 17.7348 6.66668 18C6.66668 18.2652 6.75447 18.5196 6.91075 18.7071C7.06703 18.8946 7.279 19 7.50001 19C7.72102 19 7.93299 18.8946 8.08927 18.7071C8.24555 18.5196 8.33334 18.2652 8.33334 18C8.33334 17.7348 8.24555 17.4804 8.08927 17.2929C7.93299 17.1054 7.72102 17 7.50001 17ZM5.14168 17C5.31385 16.4145 5.63313 15.9074 6.05551 15.5488C6.47789 15.1901 6.98258 14.9976 7.50001 14.9976C8.01744 14.9976 8.52213 15.1901 8.94451 15.5488C9.36689 15.9074 9.68617 16.4145 9.85834 17H15.8333C16.0544 17 16.2663 17.1054 16.4226 17.2929C16.5789 17.4804 16.6667 17.7348 16.6667 18C16.6667 18.2652 16.5789 18.5196 16.4226 18.7071C16.2663 18.8946 16.0544 19 15.8333 19H9.85834C9.68617 19.5855 9.36689 20.0926 8.94451 20.4512C8.52213 20.8099 8.01744 21.0025 7.50001 21.0025C6.98258 21.0025 6.47789 20.8099 6.05551 20.4512C5.63313 20.0926 5.31385 19.5855 5.14168 19H4.16668C3.94566 19 3.7337 18.8946 3.57742 18.7071C3.42114 18.5196 3.33334 18.2652 3.33334 18C3.33334 17.7348 3.42114 17.4804 3.57742 17.2929C3.7337 17.1054 3.94566 17 4.16668 17H5.14168Z" fill="#224971"/>
</svg>
