<svg width="22" height="22" viewBox="0 0 22 22" fill="none" xmlns="http://www.w3.org/2000/svg">
<path d="M11 0.5C8.22568 0.533662 5.57448 1.65072 3.6126 3.6126C1.65072 5.57448 0.533662 8.22568 0.5 11C0.533662 13.7743 1.65072 16.4255 3.6126 18.3874C5.57448 20.3493 8.22568 21.4663 11 21.5C13.7743 21.4663 16.4255 20.3493 18.3874 18.3874C20.3493 16.4255 21.4663 13.7743 21.5 11C21.4663 8.22568 20.3493 5.57448 18.3874 3.6126C16.4255 1.65072 13.7743 0.533662 11 0.5ZM17 11.75H11.75V17H10.25V11.75H5V10.25H10.25V5H11.75V10.25H17V11.75Z" fill="#DAE6F2"/>
</svg>
