<svg width="21" height="24" viewBox="0 0 21 24" fill="none" xmlns="http://www.w3.org/2000/svg">
<path d="M18.375 21L13.125 15M2.625 10C2.625 10.9193 2.78343 11.8295 3.09124 12.6788C3.39905 13.5281 3.85021 14.2997 4.41897 14.9497C4.98773 15.5998 5.66294 16.1154 6.40606 16.4672C7.14918 16.8189 7.94565 17 8.75 17C9.55435 17 10.3508 16.8189 11.0939 16.4672C11.8371 16.1154 12.5123 15.5998 13.081 14.9497C13.6498 14.2997 14.101 13.5281 14.4088 12.6788C14.7166 11.8295 14.875 10.9193 14.875 10C14.875 9.08075 14.7166 8.1705 14.4088 7.32122C14.101 6.47194 13.6498 5.70026 13.081 5.05025C12.5123 4.40024 11.8371 3.88463 11.0939 3.53284C10.3508 3.18106 9.55435 3 8.75 3C7.94565 3 7.14918 3.18106 6.40606 3.53284C5.66294 3.88463 4.98773 4.40024 4.41897 5.05025C3.85021 5.70026 3.39905 6.47194 3.09124 7.32122C2.78343 8.1705 2.625 9.08075 2.625 10Z" stroke="#8797A8" stroke-width="2" stroke-linecap="round" stroke-linejoin="round"/>
</svg>
